<svg width="28" height="24" viewBox="0 0 28 24" fill="none" xmlns="http://www.w3.org/2000/svg">
<g id="Group">
<g id="Leaves">
<path id="Vector" fill-rule="evenodd" clip-rule="evenodd" d="M6.05811 19.4304C6.05811 19.4304 5.34327 18.7446 3.75518 18.3384C3.20076 18.1975 1.81372 18.1561 1.73858 18.3053C1.6147 18.5519 2.94285 19.2957 3.42822 19.4242C5.60524 19.9961 6.05811 19.4304 6.05811 19.4304Z" fill="#D7C7F9"/>
<path id="Vector_2" fill-rule="evenodd" clip-rule="evenodd" d="M7.70882 21.3616C7.70882 21.3616 6.96351 20.711 5.35511 20.3857C4.79461 20.2717 3.40554 20.3007 3.33852 20.452C3.22683 20.7048 4.58747 21.3823 5.08095 21.4859C7.28438 21.9501 7.70882 21.3616 7.70882 21.3616Z" fill="#D7C7F9"/>
<path id="Vector_3" fill-rule="evenodd" clip-rule="evenodd" d="M2.45514 13.5892C2.45514 13.5892 2.4328 12.6465 1.63063 11.3638C1.35038 10.9163 0.440575 10.0253 0.290296 10.0874C0.0405064 10.191 0.438545 11.5565 0.682242 11.9523C1.77075 13.7219 2.45514 13.5892 2.45514 13.5892Z" fill="#D7C7F9"/>
<path id="Vector_4" fill-rule="evenodd" clip-rule="evenodd" d="M2.47308 11.0262C2.47308 11.0262 2.6193 10.0959 2.0588 8.68478C1.86384 8.1937 1.12666 7.1473 0.968255 7.18046C0.70425 7.2364 0.852499 8.65163 1.02106 9.08676C1.77652 11.0283 2.47308 11.0262 2.47308 11.0262Z" fill="#D7C7F9"/>
<path id="Vector_5" fill-rule="evenodd" clip-rule="evenodd" d="M3.95284 6.52142C3.95284 6.52142 4.40774 5.74025 4.40978 4.26286C4.40978 3.74692 4.12749 2.52854 3.97721 2.49953C3.72539 2.4498 3.35985 3.778 3.35579 4.23178C3.33954 6.26034 3.95284 6.52349 3.95284 6.52349V6.52142Z" fill="#D7C7F9"/>
<path id="Vector_6" fill-rule="evenodd" clip-rule="evenodd" d="M2.79458 8.58105C2.79458 8.58105 3.18653 7.72736 3.02813 6.21475C2.97329 5.68637 2.54682 4.47628 2.38639 4.46177C2.11832 4.44105 1.87869 5.84385 1.92337 6.30799C2.12442 8.38628 2.79458 8.57898 2.79458 8.57898V8.58105Z" fill="#D7C7F9"/>
<path id="Vector_7" fill-rule="evenodd" clip-rule="evenodd" d="M4.23539 17.7065C4.23539 17.7065 3.73378 16.8756 2.41984 16.0903C1.96088 15.8168 0.758644 15.4273 0.667257 15.5474C0.516977 15.7505 1.54254 16.7886 1.9426 17.0331C3.73987 18.1272 4.23336 17.7065 4.23336 17.7065H4.23539Z" fill="#D7C7F9"/>
<path id="Vector_8" fill-rule="evenodd" clip-rule="evenodd" d="M1.11844 14.7703C2.77761 16.0716 3.31578 15.7131 3.31578 15.7131C3.31578 15.7131 2.91367 14.8283 1.69925 13.8897C1.27481 13.5623 0.125376 13.0318 0.0218046 13.1417C-0.150814 13.324 0.746803 14.4802 1.11844 14.7703Z" fill="#D7C7F9"/>
<path id="Vector_9" fill-rule="evenodd" clip-rule="evenodd" d="M7.43989 20.713C7.43989 20.713 7.71811 19.8075 7.46832 18.2535C7.381 17.7126 6.92204 16.486 6.78191 16.4839C6.54837 16.4777 6.44073 17.9426 6.51587 18.4192C6.84283 20.5535 7.44192 20.713 7.44192 20.713H7.43989Z" fill="#D7C7F9"/>
<path id="Vector_10" fill-rule="evenodd" clip-rule="evenodd" d="M7.84511 21.979C7.27446 21.9687 5.91381 22.2525 5.8732 22.4142C5.80821 22.6835 7.26633 23.1 7.76794 23.1125C9.26059 23.1477 9.90029 22.87 10.1623 22.6794C10.8182 22.8721 11.6285 23.1435 12.4104 23.502C12.5992 23.4937 12.9343 23.5393 13.0135 23.3818C12.0469 22.9798 10.9726 22.6566 10.2049 22.4473C9.91654 22.3126 9.12046 22.0018 7.84308 21.9811L7.84511 21.979Z" fill="#D7C7F9"/>
<path id="Vector_11" fill-rule="evenodd" clip-rule="evenodd" d="M9.45252 21.9562C9.45252 21.9562 9.62514 21.0694 9.19867 19.6334C9.05042 19.132 8.45336 18.0276 8.31324 18.04C8.07969 18.0607 8.14265 19.4552 8.27059 19.8966C8.84125 21.8734 9.45252 21.9562 9.45252 21.9562Z" fill="#D7C7F9"/>
<path id="Vector_12" fill-rule="evenodd" clip-rule="evenodd" d="M4.03408 16.7969C4.03408 16.7969 4.68597 16.1442 5.14087 14.6999C5.29927 14.1964 5.41706 12.9407 5.28912 12.8744C5.07589 12.7646 4.33667 13.9747 4.19451 14.4161C3.55684 16.3928 4.03611 16.7969 4.03611 16.7969H4.03408Z" fill="#D7C7F9"/>
<path id="Vector_13" fill-rule="evenodd" clip-rule="evenodd" d="M5.35968 18.4857C5.35968 18.4857 5.88363 17.7854 6.11514 16.3473C6.19638 15.8459 6.13748 14.6213 6.00954 14.5716C5.79631 14.4887 5.26423 15.734 5.19113 16.1754C4.8601 18.15 5.36171 18.4857 5.36171 18.4857H5.35968Z" fill="#D7C7F9"/>
<path id="Vector_14" fill-rule="evenodd" clip-rule="evenodd" d="M4.44241 12.8786C4.70642 12.4476 5.11461 11.2934 5.01307 11.1981C4.84654 11.0386 3.888 11.9772 3.65243 12.3564C2.6025 14.0472 2.93758 14.557 2.93758 14.557C2.93758 14.557 3.68492 14.1177 4.44241 12.8786Z" fill="#D7C7F9"/>
<path id="Vector_15" fill-rule="evenodd" clip-rule="evenodd" d="M5.5314 9.33739C5.41971 9.13433 4.22966 9.74351 3.8966 10.0336C2.40193 11.3328 2.57658 11.9192 2.57658 11.9192C2.57658 11.9192 3.41733 11.7244 4.49975 10.7713C4.87748 10.4397 5.60045 9.45964 5.53344 9.33946L5.5314 9.33739Z" fill="#D7C7F9"/>
<path id="Vector_16" fill-rule="evenodd" clip-rule="evenodd" d="M7.37943 5.41494C7.3185 5.18908 6.02081 5.48332 5.62684 5.68016C3.86613 6.56701 3.89456 7.17827 3.89456 7.17827C3.89456 7.17827 4.75765 7.19899 6.03503 6.54422C6.47978 6.31629 7.41598 5.54755 7.37943 5.41286V5.41494Z" fill="#D7C7F9"/>
<path id="Vector_17" fill-rule="evenodd" clip-rule="evenodd" d="M8.96658 3.78625C8.94627 3.56661 7.69123 3.62878 7.29522 3.74688C5.51827 4.28355 5.44922 4.85752 5.44922 4.85752C5.44922 4.85752 6.24733 5.01706 7.53892 4.61715C7.98976 4.47833 8.98079 3.91679 8.96658 3.78418V3.78625Z" fill="#D7C7F9"/>
<path id="Vector_18" fill-rule="evenodd" clip-rule="evenodd" d="M7.32013 3.19571C7.32013 3.19571 8.16291 3.0921 9.31641 2.26742C9.71851 1.98147 10.5227 1.0967 10.4699 0.970303C10.3806 0.758952 9.15598 1.23346 8.79856 1.48418C7.2064 2.6031 7.3181 3.19571 7.3181 3.19571H7.32013Z" fill="#D7C7F9"/>
<path id="Vector_19" fill-rule="evenodd" clip-rule="evenodd" d="M2.79707 9.47418C2.79707 9.47418 3.66017 9.45553 4.90708 8.74274C5.34167 8.49409 6.24335 7.68391 6.20071 7.55129C6.13166 7.32958 4.84616 7.68183 4.46233 7.89733C2.74224 8.86292 2.79707 9.47418 2.79707 9.47418Z" fill="#D7C7F9"/>
<path id="Vector_20" fill-rule="evenodd" clip-rule="evenodd" d="M4.95335 5.01923C4.95335 5.01923 5.50167 4.33959 5.78598 2.90986C5.88549 2.41049 5.87128 1.1859 5.74334 1.13203C5.53213 1.04086 4.95741 2.26545 4.86603 2.70266C4.46393 4.66284 4.95132 5.01923 4.95132 5.01923H4.95335Z" fill="#D7C7F9"/>
<path id="Vector_21" fill-rule="evenodd" clip-rule="evenodd" d="M7.38533 2.0644C7.59856 1.65828 7.89709 0.593231 7.80164 0.51242C7.64324 0.377735 6.83295 1.2853 6.64205 1.6417C5.7952 3.23305 6.12623 3.67233 6.12623 3.67233C6.12623 3.67233 6.77405 3.22891 7.38533 2.0644Z" fill="#D7C7F9"/>
<path id="Vector_22" fill-rule="evenodd" clip-rule="evenodd" d="M24.2443 18.3405C22.6542 18.7466 21.9414 19.4325 21.9414 19.4325C21.9414 19.4325 22.3943 19.9982 24.5713 19.4263C25.0587 19.2978 26.3848 18.5539 26.2609 18.3074C26.1858 18.1602 24.7988 18.1996 24.2443 18.3405Z" fill="#D7C7F9"/>
<path id="Vector_23" fill-rule="evenodd" clip-rule="evenodd" d="M22.6428 20.3857C21.0364 20.711 20.2891 21.3616 20.2891 21.3616C20.2891 21.3616 20.7135 21.9501 22.9169 21.4859C23.4104 21.3823 24.7711 20.7048 24.6594 20.452C24.5923 20.3007 23.2033 20.2717 22.6428 20.3857Z" fill="#D7C7F9"/>
<path id="Vector_24" fill-rule="evenodd" clip-rule="evenodd" d="M26.3675 11.3659C25.5653 12.6485 25.543 13.5913 25.543 13.5913C25.543 13.5913 26.2274 13.7219 27.3159 11.9544C27.5596 11.5586 27.9576 10.1931 27.7078 10.0895C27.5575 10.0274 26.6477 10.9183 26.3675 11.3659Z" fill="#D7C7F9"/>
<path id="Vector_25" fill-rule="evenodd" clip-rule="evenodd" d="M25.525 11.026C25.525 11.026 26.2216 11.0281 26.977 9.08652C27.1456 8.65139 27.2938 7.23616 27.0298 7.18021C26.8714 7.14706 26.1342 8.19139 25.9393 8.68454C25.3788 10.0935 25.525 11.026 25.525 11.026Z" fill="#D7C7F9"/>
<path id="Vector_26" fill-rule="evenodd" clip-rule="evenodd" d="M24.6438 4.22763C24.6398 3.77385 24.2742 2.44565 24.0224 2.49538C23.8721 2.52646 23.5898 3.74484 23.5898 4.25871C23.5898 5.73817 24.0468 6.51727 24.0468 6.51727C24.0468 6.51727 24.6621 6.25412 24.6438 4.22556V4.22763Z" fill="#D7C7F9"/>
<path id="Vector_27" fill-rule="evenodd" clip-rule="evenodd" d="M26.08 6.30799C26.1246 5.84385 25.885 4.44105 25.6169 4.46177C25.4565 4.47421 25.03 5.68637 24.9752 6.21475C24.8168 7.72736 25.2087 8.58105 25.2087 8.58105C25.2087 8.58105 25.8789 8.38628 26.08 6.31006V6.30799Z" fill="#D7C7F9"/>
<path id="Vector_28" fill-rule="evenodd" clip-rule="evenodd" d="M25.5773 16.0903C24.2633 16.8777 23.7617 17.7065 23.7617 17.7065C23.7617 17.7065 24.2552 18.1271 26.0525 17.0331C26.4546 16.7886 27.4801 15.7484 27.3278 15.5474C27.2364 15.4251 26.0342 15.8147 25.5752 16.0903H25.5773Z" fill="#D7C7F9"/>
<path id="Vector_29" fill-rule="evenodd" clip-rule="evenodd" d="M24.6836 15.7131C24.6836 15.7131 25.2218 16.0716 26.8809 14.7703C27.2526 14.4782 28.1502 13.324 27.9776 13.1417C27.874 13.0318 26.7246 13.5623 26.3001 13.8897C25.0857 14.8283 24.6836 15.7131 24.6836 15.7131Z" fill="#D7C7F9"/>
<path id="Vector_30" fill-rule="evenodd" clip-rule="evenodd" d="M21.4874 18.4213C21.5605 17.9447 21.4549 16.4798 21.2213 16.486C21.0812 16.4901 20.6202 17.7147 20.5329 18.2555C20.2851 19.8075 20.5613 20.7151 20.5613 20.7151C20.5613 20.7151 21.1584 20.5555 21.4874 18.4213Z" fill="#D7C7F9"/>
<path id="Vector_31" fill-rule="evenodd" clip-rule="evenodd" d="M20.1548 21.979C18.8754 21.9998 18.0814 22.3085 17.793 22.4452C17.0253 22.6545 15.951 22.9778 14.9844 23.3798C15.0636 23.5372 15.3987 23.4916 15.5875 23.4999C16.3694 23.1435 17.1797 22.87 17.8356 22.6773C18.0976 22.868 18.7373 23.1456 20.23 23.1104C20.7336 23.098 22.1917 22.6815 22.1247 22.4121C22.0861 22.2505 20.7255 21.9666 20.1528 21.977L20.1548 21.979Z" fill="#D7C7F9"/>
<path id="Vector_32" fill-rule="evenodd" clip-rule="evenodd" d="M18.7994 19.6314C18.375 21.0694 18.5456 21.9542 18.5456 21.9542C18.5456 21.9542 19.1569 21.8713 19.7275 19.8945C19.8555 19.4532 19.9184 18.0587 19.6849 18.0379C19.5448 18.0255 18.9477 19.1299 18.7994 19.6314Z" fill="#D7C7F9"/>
<path id="Vector_33" fill-rule="evenodd" clip-rule="evenodd" d="M23.8095 14.4181C23.6673 13.9768 22.9261 12.7667 22.7149 12.8765C22.5869 12.9428 22.7027 14.1985 22.8631 14.702C23.318 16.1442 23.9699 16.799 23.9699 16.799C23.9699 16.799 24.4472 16.3949 23.8115 14.4181H23.8095Z" fill="#D7C7F9"/>
<path id="Vector_34" fill-rule="evenodd" clip-rule="evenodd" d="M21.9866 14.5716C21.8587 14.6213 21.7998 15.8459 21.881 16.3473C22.1125 17.7874 22.6365 18.4857 22.6365 18.4857C22.6365 18.4857 23.1381 18.148 22.8071 16.1754C22.7319 15.734 22.2019 14.4887 21.9887 14.5716H21.9866Z" fill="#D7C7F9"/>
<path id="Vector_35" fill-rule="evenodd" clip-rule="evenodd" d="M25.0596 14.5569C25.0596 14.5569 25.3947 14.0493 24.3448 12.3564C24.1092 11.9793 23.1506 11.0385 22.9841 11.1981C22.8846 11.2934 23.2908 12.4476 23.5548 12.8785C24.3123 14.1156 25.0596 14.5569 25.0596 14.5569Z" fill="#D7C7F9"/>
<path id="Vector_36" fill-rule="evenodd" clip-rule="evenodd" d="M23.5008 10.7692C24.5833 11.7223 25.424 11.9171 25.424 11.9171C25.424 11.9171 25.5966 11.3307 24.104 10.0315C23.7689 9.74144 22.5809 9.13225 22.4692 9.33531C22.4022 9.45757 23.1252 10.4356 23.5029 10.7671L23.5008 10.7692Z" fill="#D7C7F9"/>
<path id="Vector_37" fill-rule="evenodd" clip-rule="evenodd" d="M24.1031 7.18035C24.1031 7.18035 24.1295 6.56908 22.3708 5.68224C21.9768 5.48539 20.6792 5.19116 20.6182 5.41701C20.5817 5.5517 21.5179 6.32044 21.9626 6.54836C23.24 7.20314 24.1031 7.18242 24.1031 7.18242V7.18035Z" fill="#D7C7F9"/>
<path id="Vector_38" fill-rule="evenodd" clip-rule="evenodd" d="M22.5526 4.85961C22.5526 4.85961 22.4815 4.28565 20.7066 3.74898C20.3086 3.6288 19.0556 3.56871 19.0353 3.78835C19.0231 3.91889 20.0141 4.48249 20.4629 4.62132C21.7545 5.02123 22.5526 4.86168 22.5526 4.86168V4.85961Z" fill="#D7C7F9"/>
<path id="Vector_39" fill-rule="evenodd" clip-rule="evenodd" d="M18.6855 2.26949C19.839 3.0921 20.6818 3.19778 20.6818 3.19778C20.6818 3.19778 20.7935 2.60517 19.2014 1.48625C18.846 1.23553 17.6214 0.763094 17.53 0.972373C17.4752 1.09877 18.2814 1.98354 18.6835 2.26949H18.6855Z" fill="#D7C7F9"/>
<path id="Vector_40" fill-rule="evenodd" clip-rule="evenodd" d="M21.7983 7.55129C21.7557 7.68391 22.6574 8.49409 23.092 8.74274C24.3389 9.45553 25.202 9.47418 25.202 9.47418C25.202 9.47418 25.2568 8.86292 23.5367 7.89733C23.1529 7.68183 21.8674 7.32958 21.7983 7.55129Z" fill="#D7C7F9"/>
<path id="Vector_41" fill-rule="evenodd" clip-rule="evenodd" d="M23.0477 5.01923C23.0477 5.01923 23.5372 4.66284 23.133 2.70266C23.0417 2.26545 22.4669 1.04086 22.2557 1.13203C22.1298 1.1859 22.1136 2.41257 22.2131 2.90986C22.4974 4.33959 23.0457 5.01923 23.0457 5.01923H23.0477Z" fill="#D7C7F9"/>
<path id="Vector_42" fill-rule="evenodd" clip-rule="evenodd" d="M21.8695 3.67233C21.8695 3.67233 22.2026 3.23512 21.3537 1.6417C21.1628 1.2853 20.3545 0.377735 20.1941 0.51242C20.0986 0.593231 20.3972 1.65828 20.6104 2.0644C21.2196 3.22891 21.8695 3.67233 21.8695 3.67233Z" fill="#D7C7F9"/>
</g>
</g>
</svg>
